<svg width="32" height="33" viewBox="0 0 32 33" fill="none" xmlns="http://www.w3.org/2000/svg">
<path d="M18.666 4.51709C20.6911 4.51709 22.3327 6.15871 22.3327 8.18376H25.3327C27.5418 8.18376 29.3327 9.97462 29.3327 12.1838V22.8504C29.3327 25.0596 27.5418 26.8504 25.3327 26.8504H6.66602C4.45688 26.8504 2.66602 25.0596 2.66602 22.8504V12.1838C2.66602 9.97462 4.45688 8.18376 6.66602 8.18376H9.66602C9.66602 6.15871 11.3076 4.51709 13.3327 4.51709H18.666ZM20.3327 8.18376C20.3327 7.26328 19.5865 6.51709 18.666 6.51709H13.3327C12.4122 6.51709 11.666 7.26328 11.666 8.18376H20.3327ZM27.3327 12.1838C27.3327 11.0792 26.4373 10.1838 25.3327 10.1838H6.66602C5.56145 10.1838 4.66602 11.0792 4.66602 12.1838V17.8504H27.3327V12.1838ZM25.3327 24.8504C26.4373 24.8504 27.3327 23.955 27.3327 22.8504V19.8504H19.666V21.5171C19.666 22.8058 18.6213 23.8504 17.3327 23.8504H14.666C13.3774 23.8504 12.3327 22.8058 12.3327 21.5171L12.3327 19.8504H4.66602V22.8504C4.66602 23.955 5.56145 24.8504 6.66602 24.8504H25.3327ZM17.3327 21.8504C17.5168 21.8504 17.666 21.7012 17.666 21.5171V19.8504H14.3327V21.5171C14.3327 21.7012 14.4819 21.8504 14.666 21.8504H17.3327Z" fill="white"/>
</svg>
