<svg width="32" height="33" viewBox="0 0 32 33" fill="none" xmlns="http://www.w3.org/2000/svg">
<path d="M17 12.1836C17 11.6313 16.5523 11.1836 16 11.1836C15.4477 11.1836 15 11.6313 15 12.1836V18.7169C15 19.3429 15.5074 19.8503 16.1333 19.8503H20.6667C21.219 19.8503 21.6667 19.4025 21.6667 18.8503C21.6667 18.298 21.219 17.8503 20.6667 17.8503H17V12.1836Z" fill="white"/>
<path d="M13.3333 3.18359C12.781 3.18359 12.3333 3.63131 12.3333 4.18359C12.3333 4.73588 12.781 5.18359 13.3333 5.18359H15V5.51693C15 5.53066 15.0003 5.54433 15.0008 5.55793C8.8409 6.06569 4 11.226 4 17.5169C4 24.1443 9.37258 29.5169 16 29.5169C22.6274 29.5169 28 24.1443 28 17.5169C28 11.226 23.1591 6.06569 16.9992 5.55793C16.9997 5.54433 17 5.53066 17 5.51693V5.18359H18.6667C19.219 5.18359 19.6667 4.73588 19.6667 4.18359C19.6667 3.63131 19.219 3.18359 18.6667 3.18359H13.3333ZM16 27.5169C10.4772 27.5169 6 23.0398 6 17.5169C6 11.9941 10.4772 7.51693 16 7.51693C21.5228 7.51693 26 11.9941 26 17.5169C26 23.0398 21.5228 27.5169 16 27.5169Z" fill="white"/>
</svg>
