<svg class="features-block__animation--image-1 absolute right-[2.5rem] top-[40px] w-[110px] xl:right-[-55px] xl:w-[130px]" width="188" height="262" viewBox="0 0 188 262" fill="none" xmlns="http://www.w3.org/2000/svg"><path d="M2.70398 260.655L2.26147 260.343C1.8548 260.13 1.51175 259.813 1.26715 259.424C1.02255 259.035 0.88502 258.589 0.868652 258.13L0.946826 14.1414C0.947219 13.0481 1.23935 11.9747 1.79307 11.032C2.34679 10.0893 3.1421 9.31143 4.0968 8.77869C4.99276 8.26988 6.00823 8.00929 7.03848 8.02376V8.02376H180.05C180.852 8.02376 181.647 8.18207 182.389 8.48967C183.13 8.79727 183.804 9.24811 184.371 9.81635C184.938 10.3846 185.387 11.0591 185.693 11.8012C185.999 12.5434 186.156 13.3386 186.154 14.1414L186.076 258.13C186.084 258.576 185.999 259.019 185.829 259.432L185.621 259.926L185.1 260.082C184.681 260.271 184.219 260.345 183.761 260.297C183.304 260.249 182.868 260.08 182.497 259.809L171.42 250.919C170.883 250.487 170.215 250.251 169.526 250.251C168.837 250.251 168.169 250.487 167.632 250.919L157.467 259.275C156.637 259.943 155.603 260.306 154.538 260.304C153.471 260.323 152.428 259.989 151.57 259.354L140.897 251.023C140.366 250.596 139.704 250.364 139.023 250.364C138.341 250.364 137.68 250.596 137.148 251.023L127.165 259.223C126.331 259.894 125.293 260.257 124.223 260.252C123.163 260.252 122.13 259.92 121.268 259.302L110.595 250.971C110.064 250.544 109.403 250.312 108.721 250.312C108.039 250.312 107.378 250.544 106.847 250.971L96.8631 259.171C96.0189 259.816 94.9898 260.171 93.928 260.185C92.8661 260.199 91.8279 259.871 90.9669 259.249L80.2935 250.906C79.762 250.479 79.1009 250.247 78.4193 250.247C77.7376 250.247 77.0763 250.479 76.5449 250.906L66.5615 259.106C65.7208 259.758 64.6903 260.119 63.6264 260.133C62.5624 260.147 61.5229 259.814 60.6652 259.184L49.9919 250.854C49.4604 250.427 48.7991 250.195 48.1175 250.195C47.4359 250.195 46.7748 250.427 46.2433 250.854L36.2598 259.054C35.4237 259.72 34.3867 260.082 33.3181 260.082H33.253C32.2074 260.093 31.1874 259.759 30.3504 259.132L19.3648 250.542C18.8344 250.124 18.1787 249.896 17.5034 249.896C16.8281 249.896 16.1725 250.124 15.6422 250.542L4.43524 259.536C4.07928 259.831 3.6676 260.053 3.22466 260.187L2.70398 260.655Z" fill="white"></path><rect x="9.92529" y="14.8882" width="168.732" height="15.1277" rx="2.32733" fill="#0075DD"></rect><path fill-rule="evenodd" clip-rule="evenodd" d="M146.315 11.6816L146.38 11.4472C147.617 7.21697 149.582 4.37944 152.199 2.98671C153.924 2.10507 155.897 1.83435 157.796 2.21876C158.262 2.30076 158.723 2.41383 159.175 2.55719C162.351 3.52039 164.239 5.00423 165.124 7.23L165.215 7.59445H167.493L167.427 7.21697C166.399 4.01499 163.965 1.93241 159.774 0.643808C159.08 0.419735 158.371 0.245747 157.652 0.123168C156.269 -0.0914709 154.857 -0.025075 153.5 0.318403C148.137 1.62002 145.599 7.25603 144.389 11.0958L134.887 41.1112C134.412 42.7601 134.309 44.4941 134.588 46.1875C134.904 47.9689 135.734 49.6191 136.976 50.9349C138.218 52.2508 139.817 53.1749 141.577 53.5937C142.072 53.7369 142.58 53.8671 143.061 53.9582C144.59 54.2893 146.179 54.2239 147.675 53.7682C149.172 53.3126 150.528 52.4819 151.613 51.3549C152.809 50.1158 153.724 48.6328 154.294 47.0075L162.768 20.5326C162.842 20.3414 162.873 20.1363 162.86 19.9317C162.846 19.7271 162.788 19.5279 162.689 19.3481C162.626 19.239 162.54 19.1451 162.437 19.0731C162.333 19.0011 162.215 18.9528 162.091 18.9315C161.661 18.8535 161.115 19.0748 160.789 19.9469L159.032 25.4396C158.949 25.56 158.883 25.6915 158.837 25.8301L152.329 46.4218C151.821 48.3097 150.615 49.9342 148.955 50.9661C147.294 51.9981 145.304 52.3604 143.387 51.9797C142.947 51.9001 142.513 51.7958 142.085 51.6673C140.682 51.3569 139.402 50.6371 138.408 49.5991C137.414 48.561 136.75 47.2515 136.501 45.8361C136.284 44.4474 136.36 43.0288 136.722 41.6709L146.315 11.6816Z" fill="#001B40"></path><path d="M89.324 210.868L92.4556 210.728C92.5954 212.993 93.9655 214.279 95.8388 214.671V209.75L94.3849 209.47C91.6727 208.995 89.7994 207.457 89.7994 204.549C89.7994 201.417 92.0921 199.404 95.8388 199.208V196.916H97.7122V199.264C101.487 199.656 103.584 201.949 103.64 205.472L100.564 205.583C100.48 203.654 99.3898 202.396 97.7122 201.977V206.87L98.9424 207.093C102.354 207.708 104.003 209.274 104.003 212.126C104.003 215.426 101.319 217.271 97.7122 217.439V219.955H95.8388V217.383C91.9803 216.991 89.324 214.727 89.324 210.868ZM97.824 210.085H97.7122V214.754C99.5296 214.615 100.676 213.804 100.676 212.35C100.676 211.008 99.6973 210.421 97.824 210.085ZM93.0707 204.297C93.0707 205.667 94.1053 206.171 95.727 206.478L95.8388 206.506V201.837C94.0493 201.977 93.0707 202.815 93.0707 204.297ZM115.443 212.126C115.443 210.449 114.1 209.582 112.283 209.582C111.752 209.582 111.249 209.61 110.773 209.666V207.037C111.137 207.093 111.668 207.093 112.311 207.093C113.793 207.093 115.135 206.422 115.135 204.633C115.135 203.067 114.184 202.005 112.255 202.005C110.214 202.005 109.04 203.458 109.04 205.723L105.656 205.583C105.656 201.949 108.173 199.18 112.339 199.18C116.365 199.18 118.63 201.25 118.63 204.297C118.63 206.478 117.008 207.988 115.331 208.212C117.568 208.575 119.022 210.169 119.022 212.406C119.022 215.509 116.421 217.467 112.423 217.467C108.033 217.467 105.377 215.034 105.377 211.12L108.816 211.259C108.9 213.524 110.27 214.643 112.423 214.643C114.156 214.643 115.443 213.776 115.443 212.126ZM135.695 208.324C135.695 214.167 132.787 217.467 128.062 217.467C123.364 217.467 120.456 214.167 120.456 208.324C120.456 202.48 123.364 199.18 128.062 199.18C132.787 199.18 135.695 202.48 135.695 208.324ZM132.004 208.324C132.004 204.074 130.802 202.005 128.062 202.005C125.35 202.005 124.147 204.074 124.147 208.324C124.147 212.574 125.35 214.643 128.062 214.643C130.802 214.643 132.004 212.574 132.004 208.324ZM152.515 208.324C152.515 214.167 149.607 217.467 144.882 217.467C140.184 217.467 137.276 214.167 137.276 208.324C137.276 202.48 140.184 199.18 144.882 199.18C149.607 199.18 152.515 202.48 152.515 208.324ZM148.824 208.324C148.824 204.074 147.622 202.005 144.882 202.005C142.169 202.005 140.967 204.074 140.967 208.324C140.967 212.574 142.169 214.643 144.882 214.643C147.622 214.643 148.824 212.574 148.824 208.324ZM169.335 208.324C169.335 214.167 166.427 217.467 161.702 217.467C157.004 217.467 154.096 214.167 154.096 208.324C154.096 202.48 157.004 199.18 161.702 199.18C166.427 199.18 169.335 202.48 169.335 208.324ZM165.644 208.324C165.644 204.074 164.442 202.005 161.702 202.005C158.989 202.005 157.787 204.074 157.787 208.324C157.787 212.574 158.989 214.643 161.702 214.643C164.442 214.643 165.644 212.574 165.644 208.324Z" fill="#001B40"></path><path d="M24.3104 58.1193L24.3099 59.6086L17.565 59.6062L17.5681 50.5843L24.1842 50.5866L24.1837 52.076L19.329 52.0743L19.3283 54.2653L23.1375 54.2666L23.137 55.7416L19.3277 55.7403L19.3269 58.1175L24.3104 58.1193ZM34.1311 50.5901L30.9362 54.8708L34.4144 59.6121L32.3093 59.6114L29.8616 56.2738L27.426 59.6097L25.4354 59.609L28.9169 54.9847L25.725 50.5872L27.8301 50.5879L29.9914 53.596L32.1406 50.5894L34.1311 50.5901ZM37.6474 55.045L39.4088 55.0456C40.7549 55.0461 41.3422 54.5308 41.3426 53.557C41.3429 52.5832 40.756 52.0388 39.4098 52.0383L37.6484 52.0377L37.6474 55.045ZM37.6469 56.5057L37.6458 59.6132L35.87 59.6126L35.8732 50.5907L39.4676 50.592C41.7732 50.5928 43.0903 51.6673 43.0897 53.5432C43.089 55.4192 41.7712 56.5071 39.4656 56.5063L37.6469 56.5057ZM51.3975 58.1287L51.3969 59.618L44.652 59.6157L44.6551 50.5938L51.2712 50.5961L51.2707 52.0854L46.416 52.0837L46.4153 54.2748L50.2245 54.2761L50.224 55.7511L46.4147 55.7498L46.4139 58.127L51.3975 58.1287ZM55.003 50.5974L59.2684 56.6135L59.2705 50.5989L60.9317 50.5994L60.9286 59.6214L59.4965 59.6209L54.8875 53.261L54.8853 59.6193L53.2241 59.6187L53.2273 50.5968L55.003 50.5974ZM62.5971 56.4142L64.244 56.3431C64.3151 57.7466 65.3317 58.377 66.5919 58.3775C67.7089 58.3779 68.4251 57.9342 68.4253 57.1752C68.4256 56.4878 67.8815 56.2298 66.9364 56.0433L65.218 55.7277C63.8147 55.4694 62.8412 54.6958 62.8417 53.2064C62.8423 51.5166 64.1745 50.4287 66.2796 50.4295C68.6425 50.4303 69.9739 51.648 70.0018 53.6529L68.3549 53.7096C68.2981 52.478 67.4963 51.8333 66.2648 51.8329C65.2051 51.8325 64.6034 52.3049 64.6032 53.0782C64.6029 53.7369 65.0754 53.9662 65.8917 54.124L67.5527 54.4253C69.3284 54.7553 70.1586 55.6005 70.1581 57.0612C70.1575 58.837 68.6249 59.7959 66.5914 59.7952C64.2715 59.7944 62.5964 58.5909 62.5971 56.4142ZM78.7362 58.1383L78.7357 59.6276L71.9907 59.6252L71.9939 50.6033L78.6099 50.6056L78.6094 52.095L73.7548 52.0933L73.754 54.2843L77.5633 54.2856L77.5627 55.7606L73.7535 55.7593L73.7527 58.1365L78.7362 58.1383Z" fill="#001B40" fill-opacity="0.4"></path><rect x="16.5269" y="121.197" width="126.381" height="10.0658" rx="2.49142" fill="#E6E9EC"></rect><path fill-rule="evenodd" clip-rule="evenodd" d="M18.4951 103.798C17.9184 103.798 17.4269 103.594 17.0206 103.188C16.6143 102.782 16.4111 102.29 16.4111 101.714V91.7855C16.4111 91.2088 16.6143 90.7173 17.0206 90.311C17.4269 89.9047 17.9184 89.7015 18.4951 89.7015H21.444V89.446C21.444 88.6858 21.716 88.037 22.2599 87.4997C22.8038 86.9623 23.4559 86.6936 24.216 86.6936H26.7325C27.4926 86.6936 28.1447 86.9623 28.6886 87.4997C29.2325 88.037 29.5045 88.6858 29.5045 89.446V89.7015H32.4534C33.0301 89.7015 33.5216 89.9047 33.9279 90.311C34.3342 90.7173 34.5374 91.2088 34.5374 91.7855V101.714C34.5374 102.29 34.3342 102.782 33.9279 103.188C33.5216 103.594 33.0301 103.798 32.4534 103.798H18.4951ZM32.4535 102.284C32.6107 102.284 32.7451 102.228 32.8565 102.117C32.9679 102.005 33.0236 101.871 33.0236 101.714V98.2535H27.9907V99.0202C27.9907 99.5052 27.8171 99.918 27.4697 100.259C27.1224 100.6 26.7063 100.77 26.2213 100.77H24.7272C24.2423 100.77 23.8261 100.6 23.4788 100.259C23.1315 99.918 22.9578 99.5052 22.9578 99.0202V98.2535H17.925V101.714C17.925 101.871 17.9807 102.005 18.0921 102.117C18.2035 102.228 18.3378 102.284 18.4951 102.284H32.4535ZM24.4712 98.2535V99.0202C24.4712 99.0858 24.4941 99.1447 24.54 99.1972C24.5859 99.2496 24.6481 99.2758 24.7268 99.2758H26.2209C26.2996 99.2758 26.3618 99.2496 26.4077 99.1972C26.4536 99.1447 26.4765 99.0858 26.4765 99.0202V98.2535H24.4712ZM22.9573 89.4459V89.7015H27.9902V89.4459C27.9902 89.1052 27.8657 88.8103 27.6167 88.5612C27.3676 88.3122 27.0727 88.1877 26.732 88.1877H24.2155C23.8748 88.1877 23.5799 88.3122 23.3308 88.5612C23.0818 88.8103 22.9573 89.1052 22.9573 89.4459ZM18.4951 91.2153C18.3378 91.2153 18.2035 91.271 18.0921 91.3824C17.9807 91.4938 17.925 91.6281 17.925 91.7854V96.7593H33.0236V91.7854C33.0236 91.6281 32.9679 91.4938 32.8565 91.3824C32.7451 91.271 32.6107 91.2153 32.4535 91.2153H29.5045V91.9623C29.5045 92.172 29.4291 92.3523 29.2784 92.503C29.1277 92.6537 28.9475 92.7291 28.7378 92.7291C28.5281 92.7291 28.3511 92.6537 28.207 92.503C28.0628 92.3523 27.9907 92.172 27.9907 91.9623V91.2153H22.9578V91.9623C22.9578 92.172 22.8857 92.3523 22.7416 92.503C22.5974 92.6537 22.4205 92.7291 22.2108 92.7291C22.0011 92.7291 21.8208 92.6537 21.6701 92.503C21.5194 92.3523 21.444 92.172 21.444 91.9623V91.2153H18.4951Z" fill="#0075DD"></path><path d="M56.0571 96.0122C56.0557 99.8922 53.4548 102.551 49.7948 102.55C46.1148 102.549 43.5357 99.8878 43.5371 96.0078C43.5384 92.1278 46.1194 89.4687 49.7994 89.47C53.4594 89.4713 56.0584 92.1322 56.0571 96.0122ZM54.2571 96.0116C54.2582 92.9316 52.5188 90.951 49.7988 90.95C47.0788 90.9491 45.3182 92.9285 45.3171 96.0085C45.316 99.0885 47.0753 101.069 49.7953 101.07C52.5153 101.071 54.256 99.0916 54.2571 96.0116ZM63.5833 94.7748L59.9433 94.7736L59.9407 102.314L58.3007 102.313L58.3033 94.773L56.9633 94.7725L56.9637 93.5725L58.3037 93.573L58.304 92.633C58.3047 90.813 59.4251 89.6734 61.1051 89.674C62.1251 89.6743 62.745 89.9945 63.2248 90.3147L62.7845 91.4146C62.3646 91.1144 61.8846 90.9142 61.3246 90.914C60.3846 90.9137 59.9444 91.5536 59.944 92.6136L59.9437 93.5736L63.5837 93.5748L63.5839 92.9548C63.5847 90.8348 64.8251 89.4753 66.9651 89.476C68.7051 89.4766 69.6449 90.197 70.1444 91.6171L68.8242 92.0767C68.5645 91.3166 67.9847 90.7564 67.0247 90.756C65.9247 90.7557 65.2244 91.4554 65.224 92.7954L65.2237 93.5754L70.5237 93.5773L70.5207 102.317L68.8607 102.317L68.8633 94.7767L65.2233 94.7754L65.2207 102.315L63.5807 102.315L63.5833 94.7748ZM72.2264 97.9579C72.2274 95.1779 74.068 93.3385 76.708 93.3394C79.268 93.3403 80.6474 95.0608 80.8267 97.1609L79.3666 97.2603C79.2272 95.7203 78.3075 94.68 76.6875 94.6794C75.0475 94.6788 73.9271 95.9384 73.9264 97.9584C73.9257 99.9784 75.0453 101.239 76.6853 101.239C78.3053 101.24 79.2256 100.14 79.3662 98.6003L80.8261 98.7409C80.6454 100.861 79.2648 102.56 76.7048 102.559C74.0648 102.558 72.2254 100.738 72.2264 97.9579ZM89.2306 99.2238L90.6106 99.3843C90.1699 101.364 88.7095 102.564 86.5295 102.563C83.9295 102.562 82.0301 100.801 82.031 98.0813C82.032 95.3213 83.9327 93.3419 86.4527 93.3428C89.2327 93.3438 90.652 95.3243 90.6512 97.7043L90.6509 98.3643L83.6909 98.3619C83.7704 100.062 84.9899 101.262 86.5499 101.263C88.0099 101.263 88.8702 100.564 89.2306 99.2238ZM83.7313 97.2819L88.9513 97.2837C88.8918 95.8837 88.1123 94.6034 86.4523 94.6028C84.8723 94.6023 83.9318 95.8419 83.7313 97.2819ZM95.27 97.8259L96.8301 97.7264C96.9293 100.026 98.5089 101.207 100.629 101.208C102.509 101.208 103.689 100.409 103.69 99.0288C103.69 97.8688 102.93 97.3086 101.29 96.988L98.7905 96.5071C96.9306 96.1465 95.651 95.146 95.6517 93.186C95.6524 90.986 97.3929 89.4866 100.153 89.4876C103.313 89.4887 105.132 91.1693 105.151 94.0093L103.571 94.0888C103.512 92.0088 102.252 90.8283 100.172 90.8276C98.3525 90.827 97.3322 91.6866 97.3317 93.0866C97.3313 94.3266 98.1511 94.7269 99.611 95.0074L101.891 95.4482C104.191 95.889 105.35 96.8894 105.35 98.9094C105.349 101.229 103.348 102.569 100.628 102.568C97.5284 102.567 95.269 100.866 95.27 97.8259ZM113.041 98.6121L113.043 93.5921L114.703 93.5927L114.7 102.333L113.04 102.332L113.04 100.792C112.62 101.832 111.5 102.572 110.18 102.571C107.9 102.57 107.06 101.07 107.061 99.03L107.063 93.59L108.723 93.5906L108.721 98.8706C108.721 100.331 109.36 101.271 110.74 101.271C112.04 101.272 113.041 100.232 113.041 98.6121ZM118.606 97.714L118.606 98.214C118.605 100.134 119.824 101.254 121.404 101.255C123.124 101.256 124.065 99.9759 124.066 97.9759C124.066 95.9759 123.127 94.6956 121.407 94.695C119.827 94.6945 118.606 95.814 118.606 97.714ZM118.645 100.514L118.643 105.694L116.983 105.693L116.987 93.5935L118.647 93.5941L118.646 95.4341C119.027 94.3542 120.147 93.3546 121.787 93.3552C124.367 93.3561 125.787 95.3966 125.786 97.9766C125.785 100.557 124.364 102.576 121.784 102.575C120.144 102.575 119.024 101.594 118.645 100.514ZM129.133 97.7177L129.133 98.2177C129.132 100.138 130.352 101.258 131.932 101.259C133.652 101.259 134.592 99.9796 134.593 97.9796C134.594 95.9796 133.654 94.6993 131.934 94.6987C130.354 94.6981 129.134 95.8177 129.133 97.7177ZM129.172 100.518L129.17 105.698L127.51 105.697L127.514 93.5972L129.174 93.5977L129.174 95.4377C129.554 94.3579 130.675 93.3583 132.315 93.3588C134.895 93.3597 136.314 95.4002 136.313 97.9802C136.312 100.56 134.891 102.58 132.311 102.579C130.671 102.578 129.552 101.598 129.172 100.518ZM138.043 89.7408L139.703 89.7414L139.699 102.341L138.039 102.341L138.043 89.7408ZM141.968 93.6022L143.628 93.6028L143.625 102.343L141.965 102.342L141.968 93.6022ZM141.928 91.6222L141.929 89.7422L143.649 89.7428L143.648 91.6228L141.928 91.6222ZM152.531 99.2459L153.911 99.4064C153.471 101.386 152.01 102.586 149.83 102.585C147.23 102.584 145.331 100.823 145.332 98.1034C145.333 95.3434 147.233 93.364 149.753 93.3649C152.533 93.3659 153.953 95.3464 153.952 97.7264L153.952 98.3864L146.992 98.384C147.071 100.084 148.291 101.284 149.851 101.285C151.311 101.285 152.171 100.586 152.531 99.2459ZM147.032 97.304L152.252 97.3058C152.193 95.9058 151.413 94.6255 149.753 94.6249C148.173 94.6244 147.233 95.864 147.032 97.304ZM155.115 99.4068L156.515 99.3073C156.674 100.647 157.614 101.368 159.114 101.368C160.274 101.369 161.134 100.949 161.134 100.069C161.135 99.2489 160.555 98.9687 159.475 98.7683L157.995 98.5078C156.355 98.2472 155.375 97.5469 155.376 96.0469C155.376 94.4469 156.717 93.3673 158.737 93.3681C161.057 93.3689 162.416 94.4493 162.576 96.4694L161.236 96.5489C161.036 95.2089 160.216 94.5886 158.736 94.5881C157.636 94.5877 156.916 95.0874 156.916 95.8874C156.916 96.5874 157.356 96.9476 158.255 97.1079L159.895 97.3685C161.655 97.6691 162.695 98.3294 162.694 99.9094C162.694 101.649 161.154 102.589 159.114 102.588C156.934 102.587 155.274 101.567 155.115 99.4068Z" fill="#001B40"></path></svg>