<svg width="188" height="262" viewBox="0 0 188 262" fill="none" xmlns="http://www.w3.org/2000/svg" class="features-block__animation--image-2 absolute left-[2.5rem] top-[70px] w-[90px] xl:left-[unset] xl:right-[20px] xl:top-[240px] xl:w-[110px]"><path d="M2.70398 260.655L2.26147 260.343C1.8548 260.13 1.51175 259.813 1.26715 259.424C1.02255 259.035 0.88502 258.589 0.868652 258.13L0.946826 14.1414C0.947219 13.0481 1.23935 11.9747 1.79307 11.032C2.34679 10.0893 3.1421 9.31143 4.0968 8.77869C4.99276 8.26988 6.00823 8.00929 7.03848 8.02376V8.02376H180.05C180.852 8.02376 181.647 8.18207 182.389 8.48967C183.13 8.79727 183.804 9.24811 184.371 9.81635C184.938 10.3846 185.387 11.0591 185.693 11.8012C185.999 12.5434 186.156 13.3386 186.154 14.1414L186.076 258.13C186.084 258.576 185.999 259.019 185.829 259.432L185.621 259.926L185.1 260.082C184.681 260.271 184.219 260.345 183.761 260.297C183.304 260.249 182.868 260.08 182.497 259.809L171.42 250.919C170.883 250.487 170.215 250.251 169.526 250.251C168.837 250.251 168.169 250.487 167.632 250.919L157.467 259.275C156.637 259.943 155.603 260.306 154.538 260.304C153.471 260.323 152.428 259.989 151.57 259.354L140.897 251.023C140.366 250.596 139.704 250.364 139.023 250.364C138.341 250.364 137.68 250.596 137.148 251.023L127.165 259.223C126.331 259.894 125.293 260.257 124.223 260.252C123.163 260.252 122.13 259.92 121.268 259.302L110.595 250.971C110.064 250.544 109.403 250.312 108.721 250.312C108.039 250.312 107.378 250.544 106.847 250.971L96.8631 259.171C96.0189 259.816 94.9898 260.171 93.928 260.185C92.8661 260.199 91.8279 259.871 90.9669 259.249L80.2935 250.906C79.762 250.479 79.1009 250.247 78.4193 250.247C77.7376 250.247 77.0763 250.479 76.5449 250.906L66.5615 259.106C65.7208 259.758 64.6903 260.119 63.6264 260.133C62.5624 260.147 61.5229 259.814 60.6652 259.184L49.9919 250.854C49.4604 250.427 48.7991 250.195 48.1175 250.195C47.4359 250.195 46.7748 250.427 46.2433 250.854L36.2598 259.054C35.4237 259.72 34.3867 260.082 33.3181 260.082H33.253C32.2074 260.093 31.1874 259.759 30.3504 259.132L19.3648 250.542C18.8344 250.124 18.1787 249.896 17.5034 249.896C16.8281 249.896 16.1725 250.124 15.6422 250.542L4.43524 259.536C4.07928 259.831 3.6676 260.053 3.22466 260.187L2.70398 260.655Z" fill="white"></path><rect x="9.92529" y="14.8882" width="168.732" height="15.1277" rx="2.32733" fill="#FFC414"></rect><path fill-rule="evenodd" clip-rule="evenodd" d="M146.315 11.6816L146.38 11.4472C147.617 7.21697 149.582 4.37944 152.199 2.98671C153.924 2.10507 155.897 1.83435 157.796 2.21876C158.262 2.30076 158.723 2.41383 159.175 2.55719C162.351 3.52039 164.239 5.00423 165.124 7.23L165.215 7.59445H167.493L167.427 7.21697C166.399 4.01499 163.965 1.93241 159.774 0.643808C159.08 0.419735 158.371 0.245747 157.652 0.123168C156.269 -0.0914709 154.857 -0.025075 153.5 0.318403C148.137 1.62002 145.599 7.25603 144.389 11.0958L134.887 41.1112C134.412 42.7601 134.309 44.4941 134.588 46.1875C134.904 47.9689 135.734 49.6191 136.976 50.9349C138.218 52.2508 139.817 53.1749 141.577 53.5937C142.072 53.7369 142.58 53.8671 143.061 53.9582C144.59 54.2893 146.179 54.2239 147.675 53.7682C149.172 53.3126 150.528 52.4819 151.613 51.3549C152.809 50.1158 153.724 48.6328 154.294 47.0075L162.768 20.5326C162.842 20.3414 162.873 20.1363 162.86 19.9317C162.846 19.7271 162.788 19.5279 162.689 19.3481C162.626 19.239 162.54 19.1451 162.437 19.0731C162.333 19.0011 162.215 18.9528 162.091 18.9315C161.661 18.8535 161.115 19.0748 160.789 19.9469L159.032 25.4396C158.949 25.56 158.883 25.6915 158.837 25.8301L152.329 46.4218C151.821 48.3097 150.615 49.9342 148.955 50.9661C147.294 51.9981 145.304 52.3604 143.387 51.9797C142.947 51.9001 142.513 51.7958 142.085 51.6673C140.682 51.3569 139.402 50.6371 138.408 49.5991C137.414 48.561 136.75 47.2515 136.501 45.8361C136.284 44.4474 136.36 43.0288 136.722 41.6709L146.315 11.6816Z" fill="#001B40"></path><path d="M106.608 210.868L109.74 210.728C109.88 212.993 111.25 214.279 113.123 214.671V209.75L111.669 209.47C108.957 208.995 107.083 207.457 107.083 204.549C107.083 201.417 109.376 199.404 113.123 199.208V196.916H114.996V199.264C118.771 199.656 120.868 201.949 120.924 205.472L117.848 205.583C117.764 203.654 116.674 202.396 114.996 201.977V206.87L116.227 207.093C119.638 207.708 121.287 209.274 121.287 212.126C121.287 215.426 118.603 217.271 114.996 217.439V219.955H113.123V217.383C109.264 216.991 106.608 214.727 106.608 210.868ZM115.108 210.085H114.996V214.754C116.814 214.615 117.96 213.804 117.96 212.35C117.96 211.008 116.981 210.421 115.108 210.085ZM110.355 204.297C110.355 205.667 111.389 206.171 113.011 206.478L113.123 206.506V201.837C111.333 201.977 110.355 202.815 110.355 204.297ZM128.057 214.167H136.138V217.131H122.857V214.782L127.778 210.728C130.518 208.435 132.028 207.037 132.028 204.912C132.028 203.291 131.189 202.116 129.288 202.116C127.33 202.116 126.352 203.458 126.352 205.5C126.352 206.087 126.408 206.562 126.547 207.037L123.08 206.898C122.969 206.338 122.885 205.779 122.885 205.248C122.885 201.557 125.485 199.18 129.371 199.18C133.566 199.18 135.691 201.585 135.691 204.717C135.691 207.82 133.51 209.805 130.853 211.93L128.057 214.167ZM152.515 208.324C152.515 214.167 149.607 217.467 144.882 217.467C140.184 217.467 137.276 214.167 137.276 208.324C137.276 202.48 140.184 199.18 144.882 199.18C149.607 199.18 152.515 202.48 152.515 208.324ZM148.824 208.324C148.824 204.074 147.622 202.005 144.882 202.005C142.169 202.005 140.967 204.074 140.967 208.324C140.967 212.574 142.169 214.643 144.882 214.643C147.622 214.643 148.824 212.574 148.824 208.324ZM169.335 208.324C169.335 214.167 166.427 217.467 161.702 217.467C157.004 217.467 154.096 214.167 154.096 208.324C154.096 202.48 157.004 199.18 161.702 199.18C166.427 199.18 169.335 202.48 169.335 208.324ZM165.644 208.324C165.644 204.074 164.442 202.005 161.702 202.005C158.989 202.005 157.787 204.074 157.787 208.324C157.787 212.574 158.989 214.643 161.702 214.643C164.442 214.643 165.644 212.574 165.644 208.324Z" fill="#001B40"></path><path d="M24.3104 58.1193L24.3099 59.6086L17.565 59.6062L17.5681 50.5843L24.1842 50.5866L24.1837 52.076L19.329 52.0743L19.3283 54.2653L23.1375 54.2666L23.137 55.7416L19.3277 55.7403L19.3269 58.1175L24.3104 58.1193ZM34.1311 50.5901L30.9362 54.8708L34.4144 59.6121L32.3093 59.6114L29.8616 56.2738L27.426 59.6097L25.4354 59.609L28.9169 54.9847L25.725 50.5872L27.8301 50.5879L29.9914 53.596L32.1406 50.5894L34.1311 50.5901ZM37.6474 55.045L39.4088 55.0456C40.7549 55.0461 41.3422 54.5308 41.3426 53.557C41.3429 52.5832 40.756 52.0388 39.4098 52.0383L37.6484 52.0377L37.6474 55.045ZM37.6469 56.5057L37.6458 59.6132L35.87 59.6126L35.8732 50.5907L39.4676 50.592C41.7732 50.5928 43.0903 51.6673 43.0897 53.5432C43.089 55.4192 41.7712 56.5071 39.4656 56.5063L37.6469 56.5057ZM51.3975 58.1287L51.3969 59.618L44.652 59.6157L44.6551 50.5938L51.2712 50.5961L51.2707 52.0854L46.416 52.0837L46.4153 54.2748L50.2245 54.2761L50.224 55.7511L46.4147 55.7498L46.4139 58.127L51.3975 58.1287ZM55.003 50.5974L59.2684 56.6135L59.2705 50.5989L60.9317 50.5994L60.9286 59.6214L59.4965 59.6209L54.8875 53.261L54.8853 59.6193L53.2241 59.6187L53.2273 50.5968L55.003 50.5974ZM62.5971 56.4142L64.244 56.3431C64.3151 57.7466 65.3317 58.377 66.5919 58.3775C67.7089 58.3779 68.4251 57.9342 68.4253 57.1752C68.4256 56.4878 67.8815 56.2298 66.9364 56.0433L65.218 55.7277C63.8147 55.4694 62.8412 54.6958 62.8417 53.2064C62.8423 51.5166 64.1745 50.4287 66.2796 50.4295C68.6425 50.4303 69.9739 51.648 70.0018 53.6529L68.3549 53.7096C68.2981 52.478 67.4963 51.8333 66.2648 51.8329C65.2051 51.8325 64.6034 52.3049 64.6032 53.0782C64.6029 53.7369 65.0754 53.9662 65.8917 54.124L67.5527 54.4253C69.3284 54.7553 70.1586 55.6005 70.1581 57.0612C70.1575 58.837 68.6249 59.7959 66.5914 59.7952C64.2715 59.7944 62.5964 58.5909 62.5971 56.4142ZM78.7362 58.1383L78.7357 59.6276L71.9907 59.6252L71.9939 50.6033L78.6099 50.6056L78.6094 52.095L73.7548 52.0933L73.754 54.2843L77.5633 54.2856L77.5627 55.7606L73.7535 55.7593L73.7527 58.1365L78.7362 58.1383Z" fill="#001B40" fill-opacity="0.4"></path><rect x="16.5269" y="121.197" width="126.381" height="10.0658" rx="2.49142" fill="#E6E9EC"></rect><path fill-rule="evenodd" clip-rule="evenodd" d="M18.4951 103.798C17.9184 103.798 17.4269 103.594 17.0206 103.188C16.6143 102.782 16.4111 102.29 16.4111 101.714V91.7855C16.4111 91.2088 16.6143 90.7173 17.0206 90.311C17.4269 89.9047 17.9184 89.7015 18.4951 89.7015H21.444V89.446C21.444 88.6858 21.716 88.037 22.2599 87.4997C22.8038 86.9623 23.4559 86.6936 24.216 86.6936H26.7325C27.4926 86.6936 28.1447 86.9623 28.6886 87.4997C29.2325 88.037 29.5045 88.6858 29.5045 89.446V89.7015H32.4534C33.0301 89.7015 33.5216 89.9047 33.9279 90.311C34.3342 90.7173 34.5374 91.2088 34.5374 91.7855V101.714C34.5374 102.29 34.3342 102.782 33.9279 103.188C33.5216 103.594 33.0301 103.798 32.4534 103.798H18.4951ZM32.4535 102.284C32.6107 102.284 32.7451 102.228 32.8565 102.117C32.9679 102.005 33.0236 101.871 33.0236 101.714V98.2535H27.9907V99.0202C27.9907 99.5052 27.8171 99.918 27.4697 100.259C27.1224 100.6 26.7063 100.77 26.2213 100.77H24.7272C24.2423 100.77 23.8261 100.6 23.4788 100.259C23.1315 99.918 22.9578 99.5052 22.9578 99.0202V98.2535H17.925V101.714C17.925 101.871 17.9807 102.005 18.0921 102.117C18.2035 102.228 18.3378 102.284 18.4951 102.284H32.4535ZM24.4712 98.2535V99.0202C24.4712 99.0858 24.4941 99.1447 24.54 99.1972C24.5859 99.2496 24.6481 99.2758 24.7268 99.2758H26.2209C26.2996 99.2758 26.3618 99.2496 26.4077 99.1972C26.4536 99.1447 26.4765 99.0858 26.4765 99.0202V98.2535H24.4712ZM22.9573 89.4459V89.7015H27.9902V89.4459C27.9902 89.1052 27.8657 88.8103 27.6167 88.5612C27.3676 88.3122 27.0727 88.1877 26.732 88.1877H24.2155C23.8748 88.1877 23.5799 88.3122 23.3308 88.5612C23.0818 88.8103 22.9573 89.1052 22.9573 89.4459ZM18.4951 91.2153C18.3378 91.2153 18.2035 91.271 18.0921 91.3824C17.9807 91.4938 17.925 91.6281 17.925 91.7854V96.7593H33.0236V91.7854C33.0236 91.6281 32.9679 91.4938 32.8565 91.3824C32.7451 91.271 32.6107 91.2153 32.4535 91.2153H29.5045V91.9623C29.5045 92.172 29.4291 92.3523 29.2784 92.503C29.1277 92.6537 28.9475 92.7291 28.7378 92.7291C28.5281 92.7291 28.3511 92.6537 28.207 92.503C28.0628 92.3523 27.9907 92.172 27.9907 91.9623V91.2153H22.9578V91.9623C22.9578 92.172 22.8857 92.3523 22.7416 92.503C22.5974 92.6537 22.4205 92.7291 22.2108 92.7291C22.0011 92.7291 21.8208 92.6537 21.6701 92.503C21.5194 92.3523 21.444 92.172 21.444 91.9623V91.2153H18.4951Z" fill="#FFC414"></path><path d="M49.6748 102.565C46.1148 102.564 43.5357 99.9432 43.5371 96.0232C43.5384 92.1432 46.2194 89.4842 49.6994 89.4854C53.2594 89.4866 55.3187 91.4673 55.5375 94.6874L53.8775 94.7868C53.7383 92.4868 52.2588 90.9663 49.7188 90.9654C47.1388 90.9645 45.3182 92.9238 45.3171 96.0438C45.316 99.1638 47.1553 101.104 49.8753 101.105C52.2353 101.106 53.7558 99.6268 53.9766 97.4669L50.1366 97.4655L50.137 96.1055L55.557 96.1074L55.5549 102.327L53.9749 102.327L53.9757 100.087C53.4151 101.687 51.6348 102.566 49.6748 102.565ZM63.2458 98.4301L63.2459 98.0101L61.2858 98.4294C59.9057 98.7289 59.0256 98.9886 59.0252 100.049C59.0249 100.789 59.5247 101.349 60.5247 101.349C62.0647 101.35 63.2452 100.19 63.2458 98.4301ZM64.8464 96.6907L64.845 100.611C64.8448 101.071 65.1048 101.291 65.5248 101.291C65.7248 101.291 66.0448 101.231 66.2848 101.091L66.2845 101.991C65.9844 102.291 65.6243 102.511 64.9443 102.511C64.0443 102.51 63.4046 101.83 63.3049 100.79C62.8246 101.81 61.5843 102.57 60.1643 102.569C58.4643 102.568 57.3646 101.648 57.3652 100.148C57.3657 98.488 58.786 97.8085 60.8861 97.3893L63.2463 96.9101L63.2464 96.5701C63.2468 95.3701 62.5471 94.6299 61.3271 94.6294C60.0671 94.629 59.3868 95.3688 59.1265 96.3887L57.6465 96.1881C57.9871 94.5483 59.2875 93.3487 61.3475 93.3494C63.5475 93.3502 64.8471 94.4707 64.8464 96.6907ZM66.9506 99.3914L68.3506 99.2919C68.5102 100.632 69.4499 101.352 70.9499 101.353C72.1099 101.353 72.9701 100.933 72.9704 100.053C72.9706 99.2335 72.3907 98.9533 71.3108 98.7529L69.8309 98.4924C68.191 98.2318 67.2112 97.5315 67.2118 96.0315C67.2123 94.4315 68.5527 93.352 70.5727 93.3527C72.8927 93.3535 74.2523 94.4339 74.4116 96.454L73.0716 96.5335C72.8721 95.1935 72.0523 94.5732 70.5723 94.5727C69.4723 94.5723 68.7521 95.072 68.7518 95.872C68.7516 96.572 69.1914 96.9322 70.0914 97.0925L71.7313 97.3531C73.4912 97.6537 74.531 98.314 74.5304 99.894C74.5298 101.634 72.9895 102.574 70.9495 102.573C68.7695 102.572 67.1098 101.551 66.9506 99.3914Z" fill="#001B40"></path></svg>