<svg width="210" height="172" viewBox="0 0 210 172" fill="none" xmlns="http://www.w3.org/2000/svg">
<path d="M107.078 0.929688C93.0149 0.929687 79.0893 3.69999 66.0967 9.08238C53.1041 14.4648 41.2991 22.3538 31.3557 32.299C21.4123 42.2442 13.5254 54.0507 8.14532 67.0442C2.76526 80.0378 -0.00252992 93.9639 1.73517e-06 108.027V254.93H146.902C175.303 254.93 202.541 243.649 222.625 223.568C242.709 203.488 253.995 176.252 254 147.851V0.929688H107.078ZM193.82 45.997C193.823 50.6057 192.917 55.1698 191.155 59.4284C189.393 63.687 186.81 67.5567 183.552 70.8164C180.294 74.0762 176.425 76.662 172.168 78.4263C167.91 80.1906 163.347 81.0986 158.738 81.0986H121.111V111.208H171.942V146.444H121.439V219.019H79.7063V36.8409H121.111V69.88C121.633 60.9442 125.55 52.5456 132.061 46.4035C138.572 40.2614 147.185 36.8405 156.136 36.8409H193.878L193.82 45.997Z" fill="#FFF3D0"/>
</svg>
