<?xml version="1.0" encoding="UTF-8"?> <svg xmlns="http://www.w3.org/2000/svg" xmlns:xlink="http://www.w3.org/1999/xlink" width="628px" height="629px" viewBox="0 0 628 629" version="1.1"><title>Group 26</title><g id="product-tour" stroke="none" stroke-width="1" fill="none" fill-rule="evenodd" fill-opacity="0.5"><g id="Group-3" fill="#003A73"><path d="M627.24674,0.274419169 L627.24674,316.551264 C627.24674,546.170275 523.53971,628.4947 327.055733,628.4947 L327.055733,628.4947 L-0.00206033636,628.4947 L-0.00206033636,327.033983 C-0.00206033636,97.4149715 103.715272,0.274419169 300.199249,0.274419169 L300.199249,0.274419169 L627.24674,0.274419169 Z M299.404595,91 L197,91 L197,541 L300.043915,541 L300.043915,361.760441 L425,361.760441 L425,274.680619 L299.404595,274.680619 L299.404595,91 Z M479,91 L386.249742,91 C338.623726,91 300,129.334402 300,176.62639 L300,199 L392.750258,199 C440.376274,199 479,160.665598 479,113.37361 L479,91 Z" id="Combined-Shape"></path></g></g></svg> 