<svg width="32" height="33" viewBox="0 0 32 33" fill="none" xmlns="http://www.w3.org/2000/svg">
<path d="M24.5758 21.3609L25.5706 25.2683L21.8565 24.3228L21.1405 24.7545C19.6366 25.6614 17.875 26.1836 15.9854 26.1836C10.4625 26.1836 5.98535 21.7064 5.98535 16.1836C5.98535 10.6607 10.4625 6.18359 15.9854 6.18359C21.5082 6.18359 25.9854 10.6607 25.9854 16.1836C25.9854 17.8094 25.5989 19.3392 24.9146 20.6915L24.5758 21.3609ZM26.6579 25.5451C26.6575 25.545 26.6583 25.5452 26.6579 25.5451ZM3.98535 16.1836C3.98535 22.811 9.35793 28.1836 15.9854 28.1836C18.2491 28.1836 20.3664 27.5568 22.1733 26.4672L26.1645 27.4833C27.1448 27.7329 28.0351 26.8426 27.7855 25.8622L26.6991 21.5945C27.5218 19.9687 27.9854 18.1303 27.9854 16.1836C27.9854 9.55618 22.6128 4.18359 15.9854 4.18359C9.35793 4.18359 3.98535 9.55618 3.98535 16.1836Z" fill="white"/>
<path d="M9.66703 12.1836C9.66703 11.6313 10.1147 11.1836 10.667 11.1836H21.3337C21.886 11.1836 22.3337 11.6313 22.3337 12.1836C22.3337 12.7359 21.886 13.1836 21.3337 13.1836H10.667C10.1147 13.1836 9.66703 12.7359 9.66703 12.1836Z" fill="white"/>
<path d="M9.66703 16.1836C9.66703 15.6313 10.1147 15.1836 10.667 15.1836H21.3337C21.886 15.1836 22.3337 15.6313 22.3337 16.1836C22.3337 16.7359 21.886 17.1836 21.3337 17.1836H10.667C10.1147 17.1836 9.66703 16.7359 9.66703 16.1836Z" fill="white"/>
<path d="M10.667 19.1836C10.1147 19.1836 9.66703 19.6313 9.66703 20.1836C9.66703 20.7359 10.1147 21.1836 10.667 21.1836H18.667C19.2193 21.1836 19.667 20.7359 19.667 20.1836C19.667 19.6313 19.2193 19.1836 18.667 19.1836H10.667Z" fill="white"/>
</svg>
