<svg width="32" height="33" viewBox="0 0 32 33" fill="none" xmlns="http://www.w3.org/2000/svg">
<path d="M16.2851 18.1834C16.2851 19.9192 14.878 21.3263 13.1422 21.3263C11.4065 21.3263 9.99935 19.9192 9.99935 18.1834C9.99935 16.4477 11.4065 15.0406 13.1422 15.0406C14.878 15.0406 16.2851 16.4477 16.2851 18.1834ZM11.9994 18.1834C11.9994 18.8146 12.511 19.3263 13.1422 19.3263C13.7734 19.3263 14.2851 18.8146 14.2851 18.1834C14.2851 17.5522 13.7734 17.0406 13.1422 17.0406C12.511 17.0406 11.9994 17.5522 11.9994 18.1834Z" fill="white"/>
<path d="M22.0929 24.9583C22.9003 25.035 23.6184 24.4056 23.6184 23.5946V20.7479C25.0939 20.7665 26.4505 20.8656 27.4262 20.9583C28.2336 21.035 28.9517 20.4056 28.9517 19.5946V8.41387C28.9517 7.74111 28.4513 7.1754 27.7816 7.11162C25.6432 6.90795 21.0847 6.58722 18.4755 7.23606C15.9935 7.85331 11.7472 7.5931 9.49854 7.39095C8.70011 7.31918 7.99935 7.9438 7.99935 8.74545V11.6124C6.54739 11.5813 5.16057 11.4804 4.1652 11.391C3.36677 11.3192 2.66602 11.9438 2.66602 12.7454V23.9736C2.66602 24.6375 3.15195 25.1977 3.81235 25.2658C5.78942 25.4696 9.93663 25.7686 13.1422 25.1308C16.1552 24.5314 20.0001 24.7595 22.0929 24.9583ZM23.2768 8.85395C24.6256 8.87304 25.9459 8.95996 26.9517 9.04506V18.9085C26.0319 18.833 24.8731 18.7625 23.6184 18.7477V12.4139C23.6184 11.7411 23.118 11.1754 22.4482 11.1116C20.3098 10.9079 15.7513 10.5872 13.1422 11.2361C12.2609 11.4552 11.1571 11.5638 9.99935 11.6036V9.44048C11.0875 9.52692 12.4705 9.60946 13.8836 9.62071C15.5719 9.63416 17.4623 9.54896 18.9582 9.17694C19.9989 8.91813 21.5745 8.82985 23.2768 8.85395ZM17.9434 12.8539C19.2923 12.873 20.6126 12.96 21.6184 13.0451V22.9085C19.3883 22.7254 15.7536 22.5721 12.752 23.1692C10.1577 23.6854 6.7556 23.5238 4.66602 23.3385V13.4405C5.75412 13.5269 7.13716 13.6095 8.55023 13.6207C10.2385 13.6342 12.1289 13.549 13.6249 13.1769C14.6656 12.9181 16.2412 12.8298 17.9434 12.8539Z" fill="white"/>
</svg>
