<svg width="32" height="33" viewBox="0 0 32 33" fill="none" xmlns="http://www.w3.org/2000/svg">
<path d="M9.06504 17.8871C9.59453 17.74 10.1429 18.0477 10.294 18.575L10.2978 18.5872C10.3027 18.6024 10.3122 18.6305 10.327 18.6697C10.3566 18.7483 10.4072 18.8705 10.4842 19.0218C10.6388 19.3253 10.8962 19.7385 11.2997 20.1535C12.0845 20.9608 13.493 21.8506 15.9994 21.8506C18.5058 21.8506 19.9142 20.9608 20.699 20.1535C21.1025 19.7385 21.3599 19.3253 21.5145 19.0218C21.5915 18.8705 21.6421 18.7483 21.6717 18.6697C21.6865 18.6305 21.696 18.6024 21.7009 18.5872L21.7047 18.5751C21.8558 18.0477 22.4042 17.74 22.9337 17.8871C23.4658 18.0349 23.777 18.5874 23.6292 19.1195L23.6288 19.1208L23.628 19.1238L23.6259 19.1309L23.6204 19.1496C23.6161 19.1639 23.6105 19.1821 23.6035 19.2038C23.5894 19.2472 23.5696 19.3051 23.5431 19.3752C23.4903 19.5153 23.4106 19.7057 23.2967 19.9294C23.0693 20.3759 22.7017 20.9627 22.133 21.5477C20.9734 22.7404 19.0485 23.8506 15.9994 23.8506C12.9502 23.8506 11.0253 22.7404 9.86569 21.5477C9.29696 20.9627 8.92939 20.3759 8.702 19.9294C8.58807 19.7057 8.50838 19.5153 8.45556 19.3752C8.42912 19.3051 8.4093 19.2472 8.39522 19.2038C8.3939 19.1997 8.39263 19.1958 8.39141 19.192C8.38612 19.1754 8.38176 19.1612 8.37826 19.1496L8.37277 19.1309L8.37074 19.1238L8.3699 19.1208L8.36916 19.1182C8.22135 18.5861 8.5329 18.0349 9.06504 17.8871Z" fill="white"/>
<path d="M13.3327 12.1839C13.3327 12.9203 12.7357 13.5173 11.9994 13.5173C11.263 13.5173 10.666 12.9203 10.666 12.1839C10.666 11.4475 11.263 10.8506 11.9994 10.8506C12.7357 10.8506 13.3327 11.4475 13.3327 12.1839Z" fill="white"/>
<path d="M19.9994 13.5173C20.7357 13.5173 21.3327 12.9203 21.3327 12.1839C21.3327 11.4475 20.7357 10.8506 19.9994 10.8506C19.263 10.8506 18.666 11.4475 18.666 12.1839C18.666 12.9203 19.263 13.5173 19.9994 13.5173Z" fill="white"/>
<path d="M29.3327 16.1839C29.3327 23.5477 23.3631 29.5173 15.9994 29.5173C8.63555 29.5173 2.66602 23.5477 2.66602 16.1839C2.66602 8.82012 8.63555 2.85059 15.9994 2.85059C23.3631 2.85059 29.3327 8.82012 29.3327 16.1839ZM4.66602 16.1839C4.66602 22.4431 9.74012 27.5173 15.9994 27.5173C22.2586 27.5173 27.3327 22.4431 27.3327 16.1839C27.3327 9.92469 22.2586 4.85059 15.9994 4.85059C9.74012 4.85059 4.66602 9.92469 4.66602 16.1839Z" fill="white"/>
</svg>
