<svg width="32" height="33" viewBox="0 0 32 33" fill="none" xmlns="http://www.w3.org/2000/svg">
<path d="M15.0222 5.20899C15.4597 4.46028 16.5417 4.46029 16.9792 5.20899L20.529 11.2838L27.4035 12.7827C28.2507 12.9674 28.5851 13.9964 28.0082 14.6439L23.3277 19.8972L24.0265 26.8984C24.1126 27.7613 23.2373 28.3972 22.4432 28.0487L16.0007 25.2206L9.55812 28.0487C8.76408 28.3972 7.88873 27.7612 7.97485 26.8984L8.67363 19.8972L3.99314 14.6439C3.41627 13.9964 3.75063 12.9674 4.59789 12.7827L11.4723 11.2838L15.0222 5.20899ZM16.0007 7.49856L13.0072 12.6213C12.8472 12.8951 12.5799 13.0893 12.2701 13.1568L6.47302 14.4208L10.42 18.8508C10.6309 19.0876 10.733 19.4018 10.7015 19.7173L10.1123 25.6212L15.5451 23.2364C15.8355 23.1089 16.1659 23.1089 16.4562 23.2364L21.8891 25.6212L21.2998 19.7173C21.2683 19.4018 21.3704 19.0875 21.5814 18.8508L25.5283 14.4208L19.7313 13.1568C19.4215 13.0893 19.1541 12.895 18.9942 12.6213L16.0007 7.49856Z" fill="white"/>
</svg>
