<svg width="80" height="14" viewBox="0 0 80 14" fill="none" xmlns="http://www.w3.org/2000/svg">
<path fill-rule="evenodd" clip-rule="evenodd" d="M6.53031 0.386365C6.7783 -0.122278 7.1839 -0.122278 7.4319 0.386365L8.84042 3.27632C9.08842 3.78496 9.74456 4.26782 10.2991 4.34929L13.4487 4.81256C14.003 4.89402 14.1285 5.28485 13.7272 5.68083L11.4479 7.93015C11.0469 8.32614 10.7964 9.10727 10.8911 9.66619L11.4288 12.8423C11.5236 13.4015 11.1954 13.643 10.6996 13.3788L7.88257 11.8794C7.38658 11.6157 6.57563 11.6157 6.07964 11.8794L3.26259 13.3788C2.76685 13.643 2.43866 13.4015 2.53337 12.8423L3.07112 9.66619C3.16583 9.10727 2.91529 8.32614 2.51428 7.93015L0.234969 5.68083C-0.166304 5.28485 -0.0407787 4.89402 0.513517 4.81256L3.6631 4.34929C4.21765 4.26782 4.87379 3.78496 5.12178 3.27632L6.53031 0.386365Z" fill="#FFC414"/>
<path fill-rule="evenodd" clip-rule="evenodd" d="M23.0337 0.382947C23.2817 -0.125696 23.6873 -0.125696 23.9353 0.382947L25.3438 3.2729C25.5918 3.78154 26.248 4.26441 26.8025 4.34587L29.9521 4.80914C30.5064 4.89061 30.6319 5.28143 30.2307 5.67742L27.9513 7.92674C27.5503 8.32272 27.2998 9.10386 27.3945 9.66277L27.9323 12.8389C28.027 13.3981 27.6988 13.6396 27.203 13.3754L24.386 11.876C23.89 11.6123 23.079 11.6123 22.5831 11.876L19.766 13.3754C19.2703 13.6396 18.9421 13.3981 19.0368 12.8389L19.5745 9.66277C19.6693 9.10386 19.4187 8.32272 19.0177 7.92674L16.7384 5.67742C16.3371 5.28143 16.4626 4.89061 17.0169 4.80914L20.1665 4.34587C20.7211 4.26441 21.3772 3.78154 21.6252 3.2729L23.0337 0.382947Z" fill="#FFC414"/>
<path fill-rule="evenodd" clip-rule="evenodd" d="M39.5542 0.385876C39.8022 -0.122766 40.2078 -0.122766 40.4558 0.385876L41.8643 3.27583C42.1123 3.78447 42.7685 4.26734 43.323 4.3488L46.4726 4.81207C47.0269 4.89354 47.1524 5.28436 46.7512 5.68035L44.4719 7.92966C44.0708 8.32565 43.8203 9.10679 43.915 9.6657L44.4528 12.8418C44.5475 13.401 44.2193 13.6425 43.7235 13.3783L40.9065 11.8789C40.4105 11.6152 39.5996 11.6152 39.1036 11.8789L36.2865 13.3783C35.7908 13.6425 35.4626 13.401 35.5573 12.8418L36.095 9.6657C36.1898 9.10679 35.9392 8.32565 35.5382 7.92966L33.2589 5.68035C32.8576 5.28436 32.9831 4.89354 33.5374 4.81207L36.687 4.3488C37.2416 4.26734 37.8977 3.78447 38.1457 3.27583L39.5542 0.385876Z" fill="#FFC414"/>
<path fill-rule="evenodd" clip-rule="evenodd" d="M56.0494 0.385876C56.2973 -0.122766 56.7029 -0.122766 56.9509 0.385876L58.3595 3.27583C58.6075 3.78447 59.2636 4.26734 59.8182 4.3488L62.9677 4.81207C63.522 4.89354 63.6476 5.28436 63.2463 5.68035L60.967 7.92966C60.566 8.32565 60.3154 9.10679 60.4101 9.6657L60.9479 12.8418C61.0426 13.401 60.7144 13.6425 60.2187 13.3783L57.4016 11.8789C56.9056 11.6152 56.0947 11.6152 55.5987 11.8789L52.7816 13.3783C52.2859 13.6425 51.9577 13.401 52.0524 12.8418L52.5902 9.6657C52.6849 9.10679 52.4343 8.32565 52.0333 7.92966L49.754 5.68035C49.3527 5.28436 49.4783 4.89354 50.0326 4.81207L53.1821 4.3488C53.7367 4.26734 54.3928 3.78447 54.6408 3.27583L56.0494 0.385876Z" fill="#FFC414"/>
<path fill-rule="evenodd" clip-rule="evenodd" d="M72.5537 0.386365C72.8017 -0.122278 73.2073 -0.122278 73.4553 0.386365L74.8639 3.27632C75.1119 3.78496 75.768 4.26782 76.3225 4.34929L79.4721 4.81256C80.0264 4.89402 80.1519 5.28485 79.7507 5.68083L77.4714 7.93015C77.0703 8.32614 76.8198 9.10727 76.9145 9.66619L77.4523 12.8423C77.547 13.4015 77.2188 13.643 76.7231 13.3788L73.906 11.8794C73.41 11.6157 72.5991 11.6157 72.1031 11.8794L69.286 13.3788C68.7903 13.643 68.4621 13.4015 68.5568 12.8423L69.0946 9.66619C69.1893 9.10727 68.9387 8.32614 68.5377 7.93015L66.2584 5.68083C65.8571 5.28485 65.9827 4.89402 66.537 4.81256L69.6865 4.34929C70.2411 4.26782 70.8972 3.78496 71.1452 3.27632L72.5537 0.386365Z" fill="#DFE5EE"/>
<mask id="mask0_1187_35056" style="mask-type:luminance" maskUnits="userSpaceOnUse" x="66" y="0" width="14" height="14">
<path fill-rule="evenodd" clip-rule="evenodd" d="M72.5679 0.381482C72.8159 -0.127161 73.2215 -0.127161 73.4695 0.381482L74.878 3.27144C75.126 3.78008 75.7822 4.26294 76.3367 4.34441L79.4863 4.80768C80.0406 4.88914 80.1661 5.27997 79.7648 5.67595L77.4855 7.92527C77.0845 8.32125 76.834 9.10239 76.9287 9.66131L77.4664 12.8374C77.5611 13.3966 77.233 13.6382 76.7372 13.3739L73.9202 11.8745C73.4242 11.6108 72.6132 11.6108 72.1172 11.8745L69.3002 13.3739C68.8045 13.6382 68.4763 13.3966 68.571 12.8374L69.1087 9.66131C69.2034 9.10239 68.9529 8.32125 68.5519 7.92527L66.2726 5.67595C65.8713 5.27997 65.9968 4.88914 66.5511 4.80768L69.7007 4.34441C70.2552 4.26294 70.9114 3.78008 71.1594 3.27144L72.5679 0.381482Z" fill="white"/>
</mask>
<g mask="url(#mask0_1187_35056)">
<rect x="62.2778" y="-9.77002" width="10.855" height="31.2446" fill="#FFC414"/>
</g>
</svg>
