<svg width="40" height="40" viewBox="0 0 40 40" fill="none" xmlns="http://www.w3.org/2000/svg">
<path d="M11.6666 6.66669C14.304 6.66669 16.5837 8.1982 17.6649 10.4204C18.3916 10.1486 19.1784 10 19.9999 10C20.8214 10 21.6083 10.1486 22.335 10.4204C23.4161 8.1982 25.6958 6.66669 28.3333 6.66669C32.0152 6.66669 34.9999 9.65146 34.9999 13.3334C34.9999 15.1407 34.2807 16.78 33.1129 17.9808C35.2618 19.574 36.6666 22.2124 36.6666 25.1975C36.6666 30.0625 32.0753 30.2867 28.311 30.2775L28.0899 30.2766C27.0938 33.4527 23.2275 33.6187 19.9777 33.6108C16.7415 33.6029 12.8998 33.4484 11.9091 30.2777C11.8204 30.2778 11.7321 30.2777 11.6443 30.2775C7.89512 30.2683 3.33325 30.0625 3.33325 25.1975C3.33325 22.2124 4.73802 19.574 6.88691 17.9808C5.7191 16.78 4.99992 15.1407 4.99992 13.3334C4.99992 9.65146 7.98469 6.66669 11.6666 6.66669ZM13.3502 17.1459C13.339 16.9876 13.3333 16.8278 13.3333 16.6667C13.3333 14.7117 14.1747 12.9533 15.5152 11.7339C14.888 10.2265 13.4011 9.16669 11.6666 9.16669C9.3654 9.16669 7.49992 11.0322 7.49992 13.3334C7.49992 15.6345 9.3654 17.5 11.6666 17.5C12.2657 17.5 12.8354 17.3736 13.3502 17.1459ZM11.6667 28.491C11.6791 25.5222 13.0809 22.9003 15.2202 21.3142C14.7273 20.8073 14.3144 20.2224 14.0016 19.5796C13.2749 19.8514 12.4881 20 11.6666 20C10.777 20 9.92818 19.8258 9.15228 19.5096C7.22892 20.5065 5.83325 22.6166 5.83325 25.1975C5.83325 26.0124 6.01885 26.415 6.16124 26.621C6.30811 26.8335 6.55761 27.0508 7.03242 27.2458C8.11601 27.6907 9.69808 27.7727 11.6504 27.7775L11.693 27.7776C11.6755 28.0015 11.6666 28.2279 11.6666 28.4564C11.6666 28.468 11.6666 28.4795 11.6667 28.491ZM17.4856 22.8429C15.5623 23.8398 14.1666 25.9499 14.1666 28.5309C14.1666 29.3458 14.3522 29.7483 14.4946 29.9543C14.6414 30.1668 14.8909 30.3841 15.3658 30.5791C16.4493 31.024 18.0314 31.106 19.9838 31.1108C21.9323 31.1156 23.5283 31.0322 24.6193 30.5852C25.0997 30.3884 25.3538 30.1682 25.5032 29.953C25.6474 29.7451 25.8333 29.3425 25.8333 28.5309C25.8333 25.9499 24.4376 23.8398 22.5142 22.8429C21.7383 23.1591 20.8895 23.3334 19.9999 23.3334C19.1104 23.3334 18.2615 23.1591 17.4856 22.8429ZM24.7796 21.3142C26.9189 22.9003 28.3207 25.5222 28.3332 28.4909C28.3332 28.4794 28.3333 28.4679 28.3333 28.4564C28.3333 28.2278 28.3243 28.0014 28.3068 27.7774L28.3171 27.7775C30.2657 27.7822 31.8617 27.6989 32.9526 27.2519C33.4331 27.0551 33.6871 26.8349 33.8365 26.6196C33.9807 26.4118 34.1666 26.0092 34.1666 25.1975C34.1666 22.6166 32.7709 20.5065 30.8476 19.5096C30.0717 19.8258 29.2228 20 28.3333 20C27.5117 20 26.7249 19.8514 25.9982 19.5796C25.6855 20.2224 25.2725 20.8073 24.7796 21.3142ZM26.6666 16.6667C26.6666 16.8278 26.6609 16.9876 26.6496 17.1459C27.1645 17.3736 27.7341 17.5 28.3333 17.5C30.6344 17.5 32.4999 15.6345 32.4999 13.3334C32.4999 11.0322 30.6344 9.16669 28.3333 9.16669C26.5988 9.16669 25.1118 10.2265 24.4846 11.7339C25.8251 12.9533 26.6666 14.7117 26.6666 16.6667ZM19.9999 20.8334C22.3011 20.8334 24.1666 18.9679 24.1666 16.6667C24.1666 14.3655 22.3011 12.5 19.9999 12.5C17.6987 12.5 15.8333 14.3655 15.8333 16.6667C15.8333 18.9679 17.6987 20.8334 19.9999 20.8334Z" fill="white"/>
</svg>
