<svg width="32" height="33" viewBox="0 0 32 33" fill="none" xmlns="http://www.w3.org/2000/svg">
<path d="M29.3327 16.1834C29.3327 23.5472 23.3631 29.5168 15.9994 29.5168C8.63555 29.5168 2.66602 23.5472 2.66602 16.1834C2.66602 8.81963 8.63555 2.8501 15.9994 2.8501C23.3631 2.8501 29.3327 8.81963 29.3327 16.1834ZM26.2924 20.9332H23.1245C22.6872 20.9332 22.3327 21.2877 22.3327 21.725C22.3327 23.2668 21.0828 24.5168 19.5409 24.5168H19.3327C17.6758 24.5168 16.3327 23.1736 16.3327 21.5168V17.5168C16.3327 15.8599 17.6758 14.5168 19.3327 14.5168H19.666C20.0342 14.5168 20.3327 14.2183 20.3327 13.8501C20.3327 12.3773 21.5266 11.1834 22.9994 11.1834H26.1729C24.3256 7.43164 20.4639 4.8501 15.9994 4.8501C12.6967 4.8501 9.72406 6.26275 7.65261 8.51677H14.666C15.9547 8.51677 16.9994 9.56143 16.9994 10.8501C16.9994 12.1388 15.9547 13.1834 14.666 13.1834H12.666C12.1137 13.1834 11.666 13.6311 11.666 14.1834C11.666 15.8403 10.3229 17.1834 8.66602 17.1834H4.70953C4.7695 17.8694 4.89059 18.5379 5.06733 19.1834H10.9993C12.4721 19.1834 13.666 20.3773 13.666 21.8501C13.666 23.3229 12.4721 24.5168 10.9993 24.5168C10.6312 24.5168 10.3327 24.8152 10.3327 25.1834V26.0006C11.9997 26.9649 13.9351 27.5168 15.9994 27.5168C20.5625 27.5168 24.4958 24.8199 26.2924 20.9332ZM5.82576 21.1834C6.46306 22.4777 7.34006 23.6327 8.39884 24.5905C8.66844 23.4031 9.73038 22.5168 10.9993 22.5168C11.3675 22.5168 11.666 22.2183 11.666 21.8501C11.666 21.4819 11.3675 21.1834 10.9993 21.1834H5.82576ZM8.66602 15.1834C9.2183 15.1834 9.66602 14.7357 9.66602 14.1834C9.66602 12.5266 11.0092 11.1834 12.666 11.1834H14.666C14.8501 11.1834 14.9994 11.0342 14.9994 10.8501C14.9994 10.666 14.8501 10.5168 14.666 10.5168H6.18221C5.37533 11.9116 4.85719 13.4944 4.70953 15.1834H8.66602ZM26.9968 18.9332C27.2162 18.0528 27.3327 17.1317 27.3327 16.1834C27.3327 15.1449 27.193 14.139 26.9314 13.1834H22.9994C22.6312 13.1834 22.3327 13.4819 22.3327 13.8501C22.3327 15.3229 21.1388 16.5168 19.666 16.5168H19.3327C18.7804 16.5168 18.3327 16.9645 18.3327 17.5168V21.5168C18.3327 22.0691 18.7804 22.5168 19.3327 22.5168H19.5409C19.9782 22.5168 20.3327 22.1623 20.3327 21.725C20.3327 20.1831 21.5826 18.9332 23.1245 18.9332H26.9968Z" fill="white"/>
</svg>
